<?xml version="1.0" standalone="no"?>
<!DOCTYPE svg PUBLIC "-//W3C//DTD SVG 20010904//EN"
 "http://www.w3.org/TR/2001/REC-SVG-20010904/DTD/svg10.dtd">
<svg version="1.0" xmlns="http://www.w3.org/2000/svg"
 width="1024.000000pt" height="1024.000000pt" viewBox="0 0 1024.000000 1024.000000"
 preserveAspectRatio="xMidYMid meet">
<metadata>
Created by potrace 1.16, written by Peter Selinger 2001-2019
</metadata>
<g transform="translate(0.000000,1024.000000) scale(0.100000,-0.100000)"
fill="#000000" stroke="none">
<path d="M5049 8167 c-68 -23 -159 -86 -205 -140 -51 -61 -104 -194 -104 -264
l0 -33 -133 0 c-75 0 -147 -5 -167 -12 -23 -7 -163 -14 -400 -18 l-365 -6 -70
-29 c-150 -61 -259 -155 -351 -301 -83 -133 -86 -148 -95 -499 -4 -170 -8
-507 -8 -747 -1 -240 -5 -439 -9 -442 -5 -3 -25 -6 -45 -8 -40 -2 -47 -20 -27
-59 10 -17 8 -19 -20 -17 -23 2 -29 6 -25 19 3 10 0 21 -6 25 -8 4 -9 3 -5 -5
4 -6 2 -18 -4 -26 -7 -8 -9 -15 -4 -16 64 -6 113 -29 61 -29 -15 0 -27 -4 -27
-9 0 -10 66 -24 79 -17 22 14 32 -26 29 -115 l-3 -94 -205 -2 -205 -2 3 -53
c2 -29 5 -62 7 -73 2 -11 4 -24 5 -30 0 -5 5 -2 11 7 5 10 16 15 25 11 13 -5
13 -8 2 -15 -9 -7 -8 -8 5 -4 10 3 35 9 55 12 31 5 40 2 59 -20 13 -14 29 -26
35 -26 9 0 8 3 -2 10 -11 7 -12 10 -2 10 8 0 16 -9 19 -20 3 -11 9 -17 14 -15
4 3 13 -4 20 -16 10 -19 8 -25 -7 -36 -14 -11 -15 -14 -4 -13 31 4 44 -2 20
-10 -14 -4 -76 -8 -139 -9 l-113 -1 7 -67 c16 -162 105 -479 189 -675 49 -114
142 -284 186 -339 l28 -35 4 -190 c4 -177 6 -194 33 -273 58 -170 187 -319
337 -391 134 -65 175 -70 578 -70 195 0 499 -7 675 -15 422 -19 725 -19 927 1
114 11 289 16 578 18 364 2 422 4 475 20 111 33 174 74 286 187 63 63 119 111
139 118 96 33 187 118 237 219 l28 57 1 290 c1 322 2 333 74 520 94 244 133
472 142 829 l3 100 -60 -1 c-51 -1 -55 0 -25 7 l35 7 -45 3 c-25 2 -53 4 -62
3 -21 0 -24 13 -5 21 6 3 2 3 -10 0 -13 -3 -38 0 -57 7 -32 11 -34 15 -32 56
0 32 5 45 18 49 10 3 18 13 19 22 1 11 4 7 9 -8 5 -17 8 -19 9 -7 1 21 14 22
31 2 14 -17 34 -9 26 11 -7 19 14 30 25 13 6 -9 9 -10 9 -2 0 7 18 13 43 15
l42 3 -3 55 c-6 94 5 90 -215 83 l-194 -6 -6 709 c-8 790 -8 787 -76 928 -42
84 -139 204 -215 263 -59 45 -150 89 -236 112 -68 19 -102 21 -397 21 -222 0
-330 4 -350 12 -15 6 -100 14 -188 17 l-160 6 -6 70 c-8 101 -46 180 -123 253
-126 122 -277 160 -427 109z m239 -163 c64 -32 116 -91 138 -157 14 -43 16
-75 10 -218 -5 -110 -4 -175 3 -188 22 -40 103 -47 135 -12 9 10 20 41 26 70
5 29 12 57 15 62 4 5 50 9 103 9 112 0 147 -13 197 -75 28 -34 30 -43 30 -118
0 -92 -22 -143 -70 -165 -37 -17 -37 -16 0 23 31 34 52 85 34 85 -5 0 -9 6 -9
14 0 22 -22 24 -41 5 -23 -23 -112 -28 -471 -26 -191 1 -300 -2 -302 -8 -3 -6
-9 -3 -15 5 -10 13 -11 13 -11 0 0 -9 -3 -11 -8 -5 -11 15 -284 7 -275 -8 5
-9 3 -9 -8 0 -18 15 -105 8 -123 -9 -7 -7 -11 -19 -8 -26 2 -6 -4 -12 -13 -12
-14 0 -15 -3 -6 -13 6 -8 9 -16 6 -18 -2 -3 5 -5 15 -5 11 0 20 4 20 7 0 4 14
4 31 -1 18 -5 35 -7 40 -5 4 3 18 1 31 -4 19 -8 14 -10 -28 -10 -28 -1 -91 -4
-141 -7 l-90 -7 -41 37 c-82 75 -105 179 -57 262 39 67 76 84 199 91 126 7
136 2 136 -68 0 -67 30 -102 89 -101 71 1 71 1 71 208 0 204 11 254 70 326 71
86 214 114 318 62z m-1043 -486 c-4 -13 -13 -52 -19 -88 l-12 -65 -195 -6
c-206 -6 -236 -12 -324 -64 -96 -56 -187 -185 -214 -305 -7 -29 -11 -443 -11
-1184 0 -627 -2 -1137 -5 -1135 -2 3 -5 44 -6 91 -2 79 -4 87 -25 97 -19 9
-22 8 -17 -6 4 -11 2 -14 -5 -9 -7 4 -16 -3 -23 -18 -7 -14 -17 -22 -25 -19
-8 3 -14 0 -14 -6 0 -6 6 -11 13 -11 8 0 7 -4 -3 -10 -8 -5 -10 -10 -4 -10 6
0 17 7 24 15 19 23 47 18 52 -9 4 -18 1 -23 -9 -19 -8 3 -12 12 -9 20 4 10 0
13 -12 11 -12 -2 -16 -11 -14 -31 2 -15 -1 -27 -7 -27 -6 0 -11 7 -11 16 0 8
-4 13 -9 10 -14 -9 -1 -47 15 -44 7 2 13 0 13 -4 2 -23 0 -29 -9 -23 -5 3 -10
1 -10 -4 0 -6 -10 -11 -22 -11 -17 0 -19 -3 -10 -9 11 -7 11 -9 -2 -14 -17 -7
-17 4 -18 2018 0 444 5 492 62 605 36 72 116 161 175 196 102 59 177 70 494
73 l203 1 -7 -22z m2343 12 c103 -13 168 -38 249 -96 99 -70 153 -147 189
-269 16 -55 18 -126 21 -778 4 -714 4 -718 -16 -708 -28 16 -39 13 -17 -4 10
-7 15 -18 12 -24 -4 -5 1 -14 10 -19 10 -6 15 -16 11 -26 -7 -17 -37 -22 -37
-6 0 5 7 7 15 4 8 -4 15 -1 15 5 0 13 -20 14 -39 2 -17 -11 -43 -3 -35 11 4 6
9 5 14 -2 5 -8 7 -3 7 13 -2 25 -3 25 -26 10 -23 -15 -23 -15 -19 20 2 20 0
33 -5 30 -5 -3 -6 5 -3 18 3 13 3 18 0 11 -20 -43 -24 50 -24 571 0 343 -4
606 -11 657 -18 143 -109 288 -226 357 -75 44 -132 53 -344 53 -220 0 -209 -4
-209 73 -1 23 -7 53 -15 67 -8 14 -14 28 -15 33 0 11 404 8 498 -3z m-2312
-361 c41 -59 111 -117 156 -129 25 -7 282 -11 744 -10 767 0 735 -2 812 56 18
15 50 49 69 76 l36 50 221 -7 c203 -7 225 -9 267 -31 54 -27 97 -73 130 -140
29 -58 28 -24 31 -1086 l3 -717 -25 32 c-43 57 -93 97 -160 130 l-65 32 -165
0 c-165 0 -165 0 -233 -32 -110 -52 -190 -150 -222 -271 -10 -41 -15 -47 -36
-44 -25 2 -555 23 -644 25 -27 1 -141 0 -253 -1 -201 -2 -203 -2 -227 -27 -32
-31 -31 -48 3 -85 l27 -30 242 -1 c133 0 247 2 252 6 18 11 12 -10 -12 -43
-13 -17 -32 -50 -42 -72 -13 -28 -22 -37 -29 -30 -6 6 -86 10 -211 10 -165 0
-204 -3 -223 -16 -31 -21 -30 -76 1 -101 21 -16 44 -18 235 -17 l212 1 0 -178
0 -179 -209 0 c-115 0 -217 -3 -226 -6 -8 -4 -23 -20 -31 -36 -13 -25 -13 -35
-3 -59 6 -17 20 -34 31 -40 12 -7 100 -10 236 -8 l217 3 3 -62 3 -62 -198 0
c-109 0 -216 -5 -238 -10 -71 -16 -86 -70 -35 -122 l31 -30 209 4 210 4 0
-131 c0 -147 15 -227 53 -284 l25 -38 -216 -6 c-120 -4 -437 -4 -705 -2 -550
6 -526 2 -601 86 -50 55 -74 111 -86 201 -13 101 -13 3178 0 3248 13 67 62
136 125 175 l48 30 206 6 c113 3 211 6 217 7 6 1 24 -16 40 -39z m2214 -1923
c51 -27 128 -105 141 -144 13 -39 12 -41 -34 -49 -30 -5 -36 -2 -42 18 -23 73
-85 113 -196 124 -129 14 -232 -30 -261 -111 -12 -34 -14 -35 -48 -29 -19 4
-37 9 -39 11 -2 2 11 34 30 71 57 112 106 134 289 130 98 -2 133 -7 160 -21z
m715 -357 c30 -15 62 -42 80 -68 l30 -43 3 -219 c4 -273 -4 -309 -81 -384 -80
-78 -112 -85 -359 -85 l-208 0 0 68 c-1 91 -24 142 -82 176 -44 26 -48 26
-244 26 -187 0 -203 -1 -244 -22 -69 -35 -90 -75 -90 -170 l0 -80 -252 4
c-237 3 -256 4 -293 25 -54 28 -89 68 -117 128 -21 46 -23 66 -26 269 -2 120
-1 234 3 253 6 35 62 105 99 126 12 6 41 14 66 17 25 3 410 6 855 6 l811 -1
49 -26z m-702 -712 c13 -39 4 -53 -35 -61 -19 -3 -41 -15 -51 -26 -19 -23 -96
-28 -144 -9 -44 17 -73 20 -73 9 0 -6 -4 -8 -10 -5 -6 3 -10 -4 -10 -17 0 -13
-5 -30 -10 -38 -7 -10 -10 16 -10 82 0 81 3 97 16 100 9 2 84 1 167 -2 l150
-5 10 -28z m-1118 -321 c19 -19 37 -25 82 -27 32 -2 64 0 71 4 18 12 184 6
201 -7 11 -8 13 -8 7 2 -4 7 -1 12 8 12 9 0 16 -4 16 -8 0 -5 23 -9 52 -11 28
-1 55 -4 60 -7 4 -3 8 3 9 13 0 10 3 13 6 6 2 -7 11 -13 19 -13 9 0 12 5 9 10
-3 6 3 10 14 10 12 0 21 -5 21 -11 0 -5 5 -7 11 -3 6 3 36 -22 68 -56 32 -34
84 -77 117 -95 32 -18 60 -39 62 -46 3 -10 1 -10 -7 1 -7 10 -11 11 -11 3 0
-7 -7 -10 -17 -6 -12 5 -14 3 -8 -8 8 -12 6 -12 -8 0 -15 12 -17 11 -17 -3 0
-9 -4 -16 -10 -16 -5 0 -7 6 -4 13 3 8 -4 13 -18 14 -13 0 -17 -1 -10 -4 37
-14 -3 -20 -125 -16 -174 4 -553 9 -553 6 0 -1 5 -13 11 -27 30 -64 189 -119
238 -82 12 9 13 8 6 -4 -7 -13 -6 -13 7 -2 14 11 18 10 27 -5 6 -11 11 -13 11
-5 0 7 5 10 10 7 6 -3 10 -1 10 6 0 7 6 5 13 -6 10 -12 19 -15 28 -9 20 12 39
14 39 3 0 -6 7 -6 18 0 14 7 25 6 40 -4 16 -12 21 -12 25 -2 4 9 8 8 17 -3 8
-12 9 -8 4 15 -6 29 -6 29 11 10 9 -11 14 -14 10 -7 -4 7 0 12 10 12 9 0 14
-4 11 -9 -9 -15 28 -23 39 -9 12 15 102 18 124 4 10 -7 12 -6 6 4 -6 9 -2 10
16 4 13 -4 38 -8 54 -8 17 -1 36 -5 44 -10 9 -6 12 -5 7 2 -4 7 7 10 34 9 22
-1 40 -6 40 -12 0 -5 5 -3 10 5 8 12 11 13 19 1 6 -9 11 -10 15 -2 4 6 13 11
19 11 7 0 6 -4 -3 -10 -23 -15 -6 -12 26 4 25 13 29 13 40 -2 10 -14 14 -14
28 -3 14 12 16 12 11 0 -4 -12 3 -14 36 -11 26 3 39 1 36 -6 -4 -6 -128 -10
-329 -11 -178 0 -413 -4 -523 -7 -222 -7 -240 -4 -307 55 -57 50 -79 115 -85
253 -5 106 -4 118 11 118 9 0 28 -11 41 -24z m1905 -106 c0 -135 -13 -175 -71
-224 -60 -51 -109 -70 -179 -70 -77 0 -110 5 -110 16 0 5 -9 4 -19 -2 -11 -5
-27 -10 -35 -10 -22 0 -20 19 2 19 9 0 33 1 52 1 19 1 38 7 42 13 6 9 8 9 8 0
0 -7 9 -13 21 -13 11 0 18 3 16 8 -3 4 8 8 25 9 42 3 138 71 159 113 11 22 20
67 23 120 6 119 13 140 42 140 24 0 24 0 24 -120z m-359 23 c0 -16 1 -16 8 1
7 17 8 18 14 3 3 -9 2 -19 -4 -22 -5 -4 -6 -11 -3 -17 4 -5 14 2 24 17 19 30
19 30 34 -38 5 -21 4 -27 -5 -21 -7 4 -9 3 -6 -3 4 -6 0 -14 -9 -17 -12 -4
-15 -2 -11 9 4 8 2 17 -2 19 -5 3 -8 -5 -8 -17 -1 -40 -3 -48 -12 -42 -6 3
-15 -4 -21 -15 -6 -11 -20 -20 -31 -20 -16 0 -19 5 -14 23 6 21 5 21 -6 2 -17
-29 -17 -29 -36 -14 -11 9 -14 10 -9 2 4 -7 4 -13 -1 -14 -4 0 -28 -3 -52 -5
-35 -4 -46 -2 -54 12 -7 13 -11 14 -17 3 -10 -16 -38 -21 -46 -7 -10 16 5 21
22 7 16 -13 16 -12 3 8 -9 15 -17 19 -23 13 -16 -16 -24 -12 -28 18 -2 16 2
34 9 41 8 8 13 8 13 1 0 -7 5 -6 14 2 7 7 11 19 8 27 -4 10 -1 13 11 8 11 -4
17 -1 17 8 0 8 3 15 8 16 4 0 21 3 37 6 17 3 40 5 53 5 12 0 22 4 22 9 0 5 23
9 50 9 41 0 50 -3 51 -17z m-3524 -304 c18 -35 55 -90 83 -121 30 -34 48 -63
44 -69 -4 -7 3 -20 17 -30 23 -18 23 -18 2 -13 -32 9 -153 141 -176 194 -32
72 -47 140 -46 210 l1 65 22 -86 c12 -47 36 -115 53 -150z"/>
<path d="M5115 7907 c-69 -32 -117 -119 -100 -184 9 -39 50 -90 87 -109 41
-21 129 -15 166 13 89 66 88 207 -1 262 -45 27 -113 35 -152 18z"/>
<path d="M4455 6801 c-16 -10 -40 -29 -53 -43 -22 -24 -24 -25 -210 -25 -103
-1 -198 -6 -212 -11 -37 -14 -77 -58 -84 -93 -8 -43 -6 -322 3 -387 5 -37 16
-61 36 -82 l29 -30 238 0 238 0 37 34 37 34 4 168 4 168 59 57 c53 51 59 61
59 98 0 48 -20 93 -52 115 -30 22 -96 20 -133 -3z m41 -115 c11 -28 -32 -84
-172 -223 l-142 -143 -52 44 c-63 54 -83 81 -87 119 l-3 29 37 -23 c21 -13 52
-33 69 -46 17 -13 34 -23 37 -23 9 0 144 142 172 180 28 37 103 100 121 100 8
0 17 -6 20 -14z"/>
<path d="M4762 6609 c-58 -12 -81 -73 -44 -118 l17 -22 834 0 833 -1 31 30
c23 24 28 36 23 56 -14 55 15 53 -856 58 -443 3 -820 1 -838 -3z"/>
<path d="M4715 6315 c-31 -30 -31 -49 -2 -79 l23 -23 830 -5 c554 -4 836 -2
849 5 50 26 59 75 19 106 -27 21 -32 21 -861 21 l-834 0 -24 -25z"/>
<path d="M4000 5970 c-55 -14 -97 -67 -105 -135 -10 -80 4 -363 20 -401 25
-62 36 -64 283 -64 323 0 313 -10 316 304 2 304 8 297 -282 302 -108 2 -213
-1 -232 -6z m370 -295 l0 -155 -139 0 c-76 0 -153 -3 -170 -6 l-31 -6 0 161 0
161 170 0 170 0 0 -155z"/>
<path d="M4754 5872 c-27 -4 -50 -29 -59 -63 -5 -21 -1 -31 25 -53 l32 -26
832 0 833 0 22 24 c29 31 25 73 -9 97 -23 17 -77 18 -840 21 -448 2 -825 2
-836 0z"/>
<path d="M5545 5600 c-623 -4 -805 -8 -822 -18 -33 -19 -40 -58 -16 -90 l20
-27 654 0 c680 0 1015 11 1043 34 22 18 20 64 -2 84 -10 9 -32 18 -48 20 -16
2 -389 0 -829 -3z"/>
<path d="M4105 5211 c-180 -8 -197 -22 -209 -166 -3 -38 -3 -137 1 -220 l6
-150 37 -37 38 -38 217 0 c326 0 316 -11 318 310 2 207 1 220 -19 247 -11 15
-36 36 -55 45 -36 19 -70 20 -334 9z m249 -137 c14 -5 16 -30 16 -170 l0 -164
-170 0 -170 0 0 170 0 170 154 0 c85 0 161 -3 170 -6z"/>
<path d="M3975 4441 c-72 -32 -75 -42 -75 -281 0 -230 5 -259 55 -298 26 -21
37 -22 239 -22 232 0 258 5 300 63 20 27 21 42 21 247 -1 205 -2 221 -21 247
-42 57 -70 63 -284 63 -168 0 -201 -3 -235 -19z m395 -184 l0 -54 -50 11 c-35
7 -63 7 -97 -2 -27 -6 -63 -14 -80 -17 -20 -4 -33 -13 -33 -22 0 -10 -6 -14
-20 -10 -25 6 -37 -9 -43 -53 -2 -19 -5 18 -5 83 l-2 117 165 0 165 0 0 -53z"/>
<path d="M4704 1975 c-177 -7 -336 -18 -355 -23 l-34 -10 47 -1 46 -1 -1 -45
-2 -45 43 -6 c64 -10 1328 -10 1464 0 l116 8 -5 33 c-3 19 -1 35 7 40 16 10
23 1 23 -29 0 -14 3 -23 8 -20 5 3 9 18 9 35 0 27 3 29 37 29 63 0 32 8 -57
14 -397 30 -945 38 -1346 21z"/>
</g>
</svg>
